<?xml version="1.0" standalone="no"?>
<!DOCTYPE svg PUBLIC "-//W3C//DTD SVG 20010904//EN"
 "http://www.w3.org/TR/2001/REC-SVG-20010904/DTD/svg10.dtd">
<svg version="1.0" xmlns="http://www.w3.org/2000/svg"
 width="1200.000000pt" height="253.000000pt" viewBox="0 0 1200.000000 253.000000"
 preserveAspectRatio="xMidYMid meet">

<g transform="translate(0.000000,253.000000) scale(0.100000,-0.100000)"
fill="#000000" stroke="none">
<path d="M1316 2160 c-335 -53 -611 -265 -734 -566 -52 -126 -67 -205 -67
-359 0 -114 5 -156 23 -224 83 -306 308 -550 600 -650 204 -69 436 -64 642 14
99 38 99 38 62 80 -18 19 -32 42 -32 50 0 11 -15 9 -71 -10 -401 -137 -844 75
-989 472 -54 150 -63 321 -25 468 21 82 94 228 149 297 99 125 258 227 421
269 164 43 376 23 528 -50 l62 -30 36 42 c23 26 34 46 28 53 -20 25 -187 97
-277 120 -109 28 -265 38 -356 24z"/>
<path d="M2021 1954 c-48 -25 -68 -56 -67 -107 0 -26 4 -47 8 -47 5 0 7 -4 4
-8 -3 -5 6 -15 19 -22 14 -7 25 -17 25 -21 0 -5 7 -6 15 -3 8 4 15 1 15 -5 0
-29 80 7 112 50 22 29 28 74 14 97 -4 7 -4 12 0 12 4 0 -12 15 -36 34 -45 36
-70 40 -109 20z"/>
<path d="M1489 1891 c-31 -31 -36 -59 -17 -94 42 -80 158 -52 158 38 0 79 -84
112 -141 56z"/>
<path d="M1325 1877 c-8 -4 -19 -6 -24 -2 -5 3 -13 0 -16 -6 -4 -5 -13 -8 -21
-5 -7 3 -16 1 -19 -5 -4 -5 -10 -7 -15 -4 -5 3 -11 1 -15 -5 -4 -6 -11 -8 -16
-5 -5 4 -9 2 -9 -3 0 -5 -18 -15 -40 -22 -22 -7 -40 -16 -40 -20 0 -3 -21 -19
-47 -35 -52 -31 -150 -135 -143 -151 3 -5 8 -8 13 -6 4 1 7 -3 7 -9 0 -7 24
10 54 37 70 63 90 80 91 74 0 -3 11 5 24 17 13 12 28 20 33 17 4 -3 8 0 8 6 0
6 4 9 9 6 5 -4 11 -2 13 4 1 5 14 11 28 14 14 2 26 5 28 7 1 1 5 2 10 3 4 1
13 5 20 9 6 5 16 6 21 2 5 -3 13 -1 16 5 4 6 19 10 33 9 62 -5 72 0 72 30 0
16 6 31 13 34 6 2 -7 6 -31 8 -23 3 -49 1 -57 -4z"/>
<path d="M1689 1818 c-1 -7 -1 -19 0 -25 1 -7 -2 -13 -8 -13 -5 0 -8 -8 -6
-17 2 -10 4 -22 4 -26 1 -5 5 -6 10 -3 5 3 21 -6 35 -19 15 -14 30 -25 33 -25
13 0 134 -136 139 -157 4 -13 10 -23 16 -23 5 0 6 -4 3 -10 -3 -5 -2 -10 3
-10 6 0 15 -13 21 -30 5 -16 7 -30 4 -30 -3 0 0 -7 7 -15 7 -8 9 -15 5 -15 -4
0 -2 -7 5 -15 6 -8 9 -19 5 -25 -4 -6 -3 -16 2 -23 11 -14 11 -176 0 -194 -4
-6 -4 -18 -1 -26 3 -8 1 -18 -5 -21 -6 -4 -8 -13 -4 -21 3 -8 1 -15 -4 -15 -5
0 -10 -10 -10 -22 -1 -13 -7 -24 -13 -26 -5 -2 -8 -8 -4 -13 3 -5 0 -9 -6 -9
-6 0 -8 -4 -5 -10 3 -5 1 -10 -6 -10 -7 0 -9 -3 -6 -6 14 -14 -134 -184 -160
-184 -7 0 -13 -4 -13 -10 0 -5 -7 -10 -15 -10 -8 0 -15 -4 -15 -8 0 -8 -71
-45 -92 -48 -4 -1 -10 -3 -13 -4 -3 -1 -9 -4 -15 -5 -5 -1 -13 -4 -17 -5 -5
-2 -12 -4 -18 -5 -5 -2 -14 -4 -20 -5 -38 -10 -123 -14 -205 -8 -25 2 -46 -1
-48 -7 -2 -5 -10 -20 -18 -32 -12 -19 -12 -22 0 -17 8 3 17 0 21 -5 3 -6 11
-9 16 -6 5 4 14 3 21 -1 11 -7 61 -13 123 -15 17 -1 52 3 140 14 11 2 26 6 33
11 6 4 17 4 22 1 6 -3 10 -1 10 5 0 7 6 10 14 7 8 -3 16 -2 18 3 2 4 12 10 23
12 11 1 22 5 25 8 3 3 28 19 55 35 65 37 166 135 207 199 18 28 36 53 40 54 5
2 6 8 2 13 -3 5 -1 9 3 9 5 0 9 10 10 22 1 11 8 25 15 29 7 5 9 9 4 9 -5 0 -3
6 3 13 6 8 8 17 4 20 -3 4 -1 13 5 20 7 8 9 17 6 20 -3 3 -2 12 2 19 8 13 14
63 16 123 0 25 -4 66 -16 145 -1 9 -5 21 -10 28 -4 6 -4 17 -1 22 3 6 1 10 -5
10 -7 0 -10 7 -6 15 3 8 1 15 -4 15 -6 0 -9 3 -8 8 3 10 -40 91 -68 129 -13
17 -24 35 -25 40 0 4 -30 33 -65 63 -36 30 -74 63 -85 73 -10 9 -19 15 -19 12
0 -3 -15 4 -32 15 -38 23 -57 25 -59 8z"/>
<path d="M2178 1715 l-38 -35 29 -46 c16 -25 42 -79 57 -120 l27 -75 43 3 c53
4 54 9 18 110 -21 60 -89 199 -97 198 -1 0 -19 -16 -39 -35z"/>
<path d="M2776 1264 c-98 -241 -181 -446 -184 -456 -4 -16 3 -18 56 -18 l60 0
106 268 c58 147 123 313 144 370 21 56 41 104 44 107 3 3 24 -45 47 -107 23
-62 88 -230 145 -373 l104 -260 61 -3 c34 -2 61 1 61 5 0 4 -82 208 -183 453
l-183 445 -50 3 -49 3 -179 -437z"/>
<path d="M3560 1246 l0 -456 55 0 55 0 0 400 0 400 113 0 c61 0 129 -5 149
-10 81 -23 126 -92 113 -171 -14 -80 -83 -128 -208 -145 -50 -7 -57 -14 -73
-79 -6 -24 -5 -25 51 -25 65 0 161 22 216 50 56 29 115 102 129 161 25 104
-11 210 -88 261 -72 48 -132 60 -329 65 l-183 5 0 -456z"/>
<path d="M4350 1246 l0 -456 55 0 55 0 0 401 0 401 133 -4 c110 -2 138 -6 166
-23 55 -32 76 -69 76 -130 0 -92 -58 -146 -182 -167 -79 -13 -82 -15 -99 -83
-6 -24 -5 -25 47 -25 66 0 166 23 219 50 129 66 178 231 106 354 -58 99 -140
127 -393 134 l-183 4 0 -456z"/>
<path d="M5415 1690 c-3 -5 -3 -210 1 -455 l7 -445 73 0 74 0 2 305 3 305 104
-305 104 -305 67 0 66 0 105 299 104 299 3 -299 2 -300 78 3 77 3 3 453 2 452
-98 0 -98 0 -108 -312 c-59 -172 -113 -326 -119 -341 -11 -26 -20 -4 -127 312
l-115 341 -102 0 c-56 0 -104 -4 -108 -10z"/>
<path d="M6744 1603 c-20 -54 -97 -253 -171 -443 -73 -189 -133 -350 -133
-358 0 -10 19 -12 81 -10 l81 3 128 355 c71 195 131 348 134 340 4 -8 64 -168
135 -355 l129 -340 87 -3 c87 -3 87 -3 82 20 -4 13 -86 218 -184 455 l-178
433 -76 0 -77 0 -38 -97z"/>
<path d="M7604 1687 c-178 -46 -262 -206 -182 -348 40 -72 113 -107 356 -170
100 -26 142 -59 142 -111 0 -74 -71 -120 -187 -120 -126 0 -200 50 -221 148
-6 31 -12 39 -30 38 -12 0 -44 -1 -72 -2 l-50 -2 0 -35 c0 -48 34 -133 70
-177 68 -82 241 -132 376 -109 206 36 318 209 239 368 -44 87 -97 118 -286
167 -165 42 -183 49 -203 78 -60 85 67 170 211 140 69 -14 110 -50 125 -109
10 -42 11 -43 53 -43 23 0 57 3 74 6 34 7 34 5 8 104 -16 64 -93 140 -167 164
-72 23 -191 29 -256 13z"/>
<path d="M8130 1625 l0 -75 140 0 140 0 2 -377 3 -378 78 -3 77 -3 0 381 0
380 145 0 145 0 0 75 0 75 -365 0 -365 0 0 -75z"/>
<path d="M9020 1245 l0 -455 345 0 345 0 0 75 0 75 -265 0 -265 0 0 125 0 125
240 0 240 0 0 70 0 70 -240 0 -240 0 0 110 0 110 255 0 255 0 0 75 0 75 -335
0 -335 0 0 -455z"/>
<path d="M9870 1245 l0 -455 80 0 80 0 0 196 0 197 88 -5 c51 -3 100 -12 119
-21 34 -18 98 -101 198 -259 l69 -108 94 0 c79 0 93 2 88 15 -14 39 -186 294
-228 340 l-48 52 46 18 c99 37 162 144 151 251 -8 74 -51 151 -105 185 -62 39
-140 49 -400 49 l-232 0 0 -455z m527 289 c15 -11 34 -38 42 -60 12 -34 11
-44 -2 -76 -28 -66 -49 -73 -239 -76 l-168 -4 0 122 0 122 169 -4 c153 -3 172
-5 198 -24z"/>
<path d="M10995 1686 c-103 -26 -158 -67 -194 -146 -53 -116 2 -248 126 -301
25 -11 99 -33 166 -50 140 -35 188 -57 205 -94 16 -34 15 -50 -4 -86 -35 -69
-188 -94 -293 -49 -59 26 -86 58 -100 119 -5 24 -11 44 -13 46 -1 2 -33 1 -70
-2 l-68 -6 0 -41 c0 -55 48 -153 95 -195 137 -120 411 -116 535 8 106 106 105
249 -1 345 -52 47 -103 68 -259 106 -108 26 -139 38 -167 63 -60 53 -2 139
101 152 125 16 207 -27 225 -118 8 -36 32 -44 108 -32 42 6 43 7 43 43 0 45
-32 117 -68 155 -75 80 -235 116 -367 83z"/>
<path d="M1355 1616 c-141 -35 -240 -131 -280 -270 -49 -170 39 -362 203 -443
51 -25 67 -28 162 -28 95 0 111 3 162 28 79 39 143 104 181 185 29 61 32 76
32 162 -1 83 -4 102 -28 151 -55 114 -155 193 -275 218 -65 13 -92 13 -157 -3z
m29 -213 l54 -108 53 108 c30 59 56 107 60 107 3 0 26 -14 51 -30 84 -56 122
-139 116 -254 -4 -87 -38 -151 -108 -204 l-44 -34 -18 36 -18 36 41 37 c51 46
69 86 69 155 0 52 -31 127 -55 134 -5 2 -41 -55 -79 -126 l-70 -129 -70 129
c-38 71 -74 126 -79 123 -20 -12 -47 -90 -47 -136 0 -62 22 -109 72 -151 l39
-34 -18 -37 -19 -37 -44 34 c-70 53 -102 114 -108 203 -6 91 13 148 67 208 29
32 86 77 98 77 2 0 27 -48 57 -107z"/>
<path d="M874 1542 c-39 -4 -68 -34 -69 -70 0 -29 7 -39 46 -64 17 -11 30 -13
42 -6 9 5 17 7 17 3 0 -3 8 3 18 13 11 9 17 20 15 24 -2 4 1 9 7 13 17 10 11
30 -17 61 -22 22 -35 28 -59 26z"/>
<path d="M2264 1371 c-44 -27 -64 -59 -64 -104 0 -75 50 -127 122 -127 39 0
92 30 109 61 31 58 2 146 -57 174 -43 20 -72 19 -110 -4z"/>
<path d="M792 1315 c-5 -94 0 -184 12 -203 4 -7 5 -16 1 -21 -3 -5 0 -13 6
-16 5 -4 8 -13 5 -21 -3 -8 -1 -14 5 -14 6 0 9 -6 6 -14 -3 -8 -1 -16 4 -18 5
-2 11 -13 12 -26 0 -12 5 -22 10 -22 4 0 5 -4 2 -10 -3 -5 -2 -10 4 -10 5 0
13 -9 16 -21 8 -24 29 -51 93 -119 23 -25 42 -40 41 -35 -1 6 1 18 5 27 6 13
-4 31 -36 67 -47 52 -112 164 -101 175 3 3 1 6 -6 6 -8 0 -11 7 -7 15 3 8 1
15 -5 15 -6 0 -9 7 -6 15 4 8 2 17 -4 21 -5 3 -7 14 -4 24 3 10 1 21 -4 24
-13 8 -12 145 1 170 7 12 7 16 0 12 -6 -3 -17 1 -25 9 -9 8 -17 15 -19 15 -2
0 -4 -20 -6 -45z"/>
<path d="M2245 1023 c-21 -78 -78 -194 -124 -252 -17 -21 -31 -43 -31 -47 1
-17 60 -75 70 -69 20 12 93 129 125 199 18 39 42 106 53 149 l20 77 -33 0
c-18 0 -40 2 -48 5 -10 4 -19 -12 -32 -62z"/>
<path d="M1110 793 c-93 -35 -72 -167 27 -167 43 0 83 40 83 84 0 52 -65 100
-110 83z"/>
<path d="M1954 673 c-11 -2 -34 -16 -50 -31 -42 -38 -42 -103 0 -153 16 -19
31 -33 32 -31 2 1 5 2 7 1 16 -5 77 -2 77 3 0 4 11 10 25 14 14 3 25 12 25 19
0 8 6 20 13 27 6 7 12 28 13 46 1 26 -7 42 -35 70 -35 36 -61 44 -107 35z"/>
</g>
</svg>
