<?xml version="1.0" standalone="no"?>
<!DOCTYPE svg PUBLIC "-//W3C//DTD SVG 20010904//EN"
 "http://www.w3.org/TR/2001/REC-SVG-20010904/DTD/svg10.dtd">
<svg version="1.0" xmlns="http://www.w3.org/2000/svg"
 width="600.000000pt" height="600.000000pt" viewBox="0 0 600.000000 600.000000"
 preserveAspectRatio="xMidYMid meet">

<g transform="translate(0.000000,600.000000) scale(0.100000,-0.100000)"
fill="#000000" stroke="none">
<path d="M2735 5400 c-653 -51 -1261 -357 -1667 -840 -302 -359 -491 -777
-553 -1224 -117 -839 214 -1676 874 -2209 335 -271 766 -455 1195 -512 193
-26 591 -16 766 18 218 43 428 112 595 195 39 19 71 35 72 36 2 1 -20 26 -48
56 -27 29 -64 84 -82 122 -23 49 -36 67 -47 64 -8 -3 -74 -25 -146 -50 -346
-119 -712 -143 -1071 -71 -782 158 -1404 751 -1594 1520 -149 604 -16 1247
360 1740 218 285 536 527 865 658 264 105 491 149 776 149 337 1 658 -76 944
-225 l102 -53 34 59 c19 33 60 83 91 112 l57 52 -101 61 c-361 217 -750 331
-1172 345 -82 3 -195 2 -250 -3z"/>
<path d="M4449 4907 c-248 -69 -324 -364 -138 -539 59 -55 119 -78 204 -78 83
0 145 23 204 76 69 62 102 132 103 220 0 94 -15 145 -65 207 -74 92 -208 141
-308 114z"/>
<path d="M3102 4753 c-45 -22 -92 -70 -108 -110 -20 -46 -17 -131 5 -178 35
-75 111 -125 191 -125 194 0 283 249 135 378 -20 18 -48 38 -62 43 -38 14
-125 10 -161 -8z"/>
<path d="M2634 4685 c-50 -7 -125 -23 -165 -35 -41 -13 -77 -23 -81 -22 -24 5
-270 -106 -375 -170 -163 -99 -350 -264 -460 -408 -70 -92 -69 -88 -21 -100
24 -7 58 -20 77 -31 l34 -20 44 51 c63 70 162 165 212 202 30 21 40 35 36 47
-5 13 -4 13 6 4 10 -10 22 -5 58 21 175 128 467 224 738 243 l92 6 0 66 c0 60
7 96 26 144 6 15 0 17 -61 16 -38 -1 -110 -7 -160 -14z"/>
<path d="M3535 4560 c11 -33 -14 -133 -45 -183 -17 -27 -30 -50 -30 -52 0 -3
24 -17 53 -31 160 -81 349 -241 461 -389 25 -33 49 -64 54 -70 29 -39 78 -121
98 -165 9 -19 25 -55 36 -80 78 -170 120 -379 120 -585 0 -247 -47 -448 -153
-656 -98 -191 -190 -310 -350 -449 -41 -36 -75 -68 -77 -72 -2 -5 -7 -8 -11
-8 -5 0 -39 -21 -77 -46 -314 -207 -743 -283 -1129 -199 -29 6 -31 5 -42 -37
-7 -25 -28 -68 -47 -96 -19 -29 -31 -54 -26 -57 4 -3 61 -18 126 -34 381 -96
804 -50 1159 124 180 88 335 201 473 344 75 77 199 230 210 260 3 9 9 18 12
21 10 7 68 112 106 191 114 234 177 578 154 830 -27 292 -110 549 -251 775
-69 111 -91 137 -101 122 -7 -9 -8 -7 -4 7 6 21 -44 85 -145 185 -126 124
-285 238 -449 320 -110 55 -135 61 -125 30z"/>
<path d="M4885 4273 c-22 -25 -64 -62 -92 -81 -29 -19 -51 -37 -49 -41 2 -3
23 -37 46 -76 88 -144 178 -346 220 -490 16 -57 19 -60 46 -57 16 1 69 5 117
8 l88 6 -7 32 c-11 51 -81 267 -109 335 -46 111 -207 415 -218 410 -1 0 -20
-21 -42 -46z"/>
<path d="M2723 3995 c-377 -68 -680 -352 -779 -730 -23 -86 -27 -121 -27 -245
0 -124 4 -159 25 -240 142 -531 665 -848 1188 -719 299 74 544 283 673 576 85
192 99 461 36 671 -91 296 -337 553 -626 651 -145 49 -341 63 -490 36z m528
-307 c395 -210 518 -728 259 -1096 -60 -86 -162 -179 -238 -220 l-59 -32 -47
100 c-25 55 -46 102 -46 105 0 2 24 20 53 38 134 86 217 218 239 380 13 97 -3
197 -47 289 -29 61 -92 141 -105 133 -4 -3 -86 -150 -181 -327 -95 -178 -178
-331 -185 -341 -10 -16 -21 0 -86 125 -164 314 -290 538 -300 532 -23 -15 -90
-132 -109 -193 -23 -75 -27 -197 -9 -276 28 -123 110 -240 222 -316 32 -22 58
-42 58 -44 0 -8 -82 -189 -89 -197 -9 -10 -114 54 -178 108 -106 90 -202 251
-238 398 -23 97 -22 258 4 357 39 153 136 304 253 398 75 60 189 121 195 105
9 -26 232 -472 251 -503 l21 -34 138 277 c76 152 140 276 142 276 2 0 39 -19
82 -42z"/>
<path d="M1373 3819 c-149 -57 -186 -249 -69 -357 67 -62 140 -77 211 -42 76
36 108 77 125 158 23 103 -35 204 -137 242 -65 24 -65 24 -130 -1z"/>
<path d="M5100 3381 c-80 -25 -159 -91 -198 -165 -22 -43 -26 -64 -27 -136 0
-100 19 -149 86 -219 64 -67 136 -96 234 -95 98 1 154 24 224 89 90 84 118
194 82 315 -42 136 -161 221 -309 219 -37 0 -78 -4 -92 -8z"/>
<path d="M1216 3306 c-4 -11 -12 -87 -18 -168 -19 -235 18 -524 87 -689 14
-32 25 -63 25 -68 0 -28 103 -222 178 -336 49 -73 163 -205 173 -199 5 3 8 0
7 -8 -2 -7 2 -12 9 -11 7 2 11 -3 8 -10 -2 -6 14 -27 35 -45 l38 -33 24 47
c12 26 33 56 45 68 13 11 23 26 23 32 0 7 -24 34 -54 60 -30 27 -79 79 -109
116 -30 37 -58 64 -62 60 -5 -4 -5 -2 -2 5 4 6 -4 24 -17 40 -34 40 -59 84
-116 198 -98 200 -144 394 -145 615 0 80 4 178 8 218 8 66 7 72 -10 72 -10 0
-41 13 -70 29 -51 28 -51 28 -57 7z"/>
<path d="M5058 2593 c-3 -4 -16 -51 -28 -103 -65 -268 -217 -568 -401 -791
l-39 -46 48 -40 c26 -22 63 -66 82 -96 19 -31 38 -55 41 -54 15 4 102 121 172
228 150 230 263 490 322 744 38 161 44 145 -60 149 -49 2 -100 7 -111 11 -12
4 -24 3 -26 -2z"/>
<path d="M2017 1830 c-49 -15 -98 -61 -123 -114 -38 -83 -29 -161 28 -230 126
-154 378 -61 378 139 0 147 -140 248 -283 205z"/>
<path d="M4219 1557 c-153 -57 -235 -195 -210 -349 17 -99 78 -180 174 -230
33 -17 60 -22 127 -22 74 -1 92 3 135 26 67 35 118 90 151 161 65 144 -4 326
-153 398 -54 26 -174 35 -224 16z"/>
</g>
</svg>
